<svg width="22" height="22" viewBox="0 0 22 22" fill="none" xmlns="http://www.w3.org/2000/svg">
<g clip-path="url(#clip0_90_23)">
<path d="M14.2552 11.9131L12.4127 13.7619C11.6655 14.5117 10.3508 14.5279 9.58746 13.7619L7.74483 11.9131L1.12695 18.5525C1.37329 18.6664 1.6449 18.7344 1.93365 18.7344H20.0665C20.3552 18.7344 20.6267 18.6665 20.873 18.5525L14.2552 11.9131Z" fill="#DA050D"/>
<path d="M20.0664 3.26562H1.93356C1.64481 3.26562 1.37321 3.3336 1.12695 3.44751L8.19862 10.5426C8.19909 10.5431 8.19965 10.5432 8.20013 10.5437C8.2006 10.5441 8.20068 10.5448 8.20068 10.5448L10.5001 12.8518C10.7443 13.096 11.2557 13.096 11.5 12.8518L13.7989 10.5452C13.7989 10.5452 13.7994 10.5441 13.7999 10.5437C13.7999 10.5437 13.8009 10.5431 13.8014 10.5426L20.8729 3.44747C20.6266 3.33352 20.3551 3.26562 20.0664 3.26562Z" fill="#DA050D"/>
<path d="M0.205648 4.34895C0.0782031 4.60668 0 4.89277 0 5.19922V16.8008C0 17.1072 0.0781172 17.3933 0.205605 17.651L6.83495 11.0002L0.205648 4.34895Z" fill="#DA050D"/>
<path d="M21.7943 4.34888L15.165 11.0002L21.7943 17.6511C21.9217 17.3934 22 17.1073 22 16.8008V5.19923C22 4.89269 21.9217 4.6066 21.7943 4.34888Z" fill="#DA050D"/>
</g>
<defs>
<clipPath id="clip0_90_23">
<rect width="22" height="22" fill="white"/>
</clipPath>
</defs>
</svg>
