<svg width="60" height="60" viewBox="0 0 60 60" fill="none" xmlns="http://www.w3.org/2000/svg">
<g clip-path="url(#clip0_22_566)">
<path d="M13.2973 36.2588L11.2088 44.0556L3.57527 44.217C1.29398 39.9858 0 35.1446 0 30.0001C0 25.0254 1.20984 20.3341 3.35438 16.2034H3.35602L10.152 17.4493L13.129 24.2045C12.5059 26.021 12.1663 27.971 12.1663 30.0001C12.1665 32.2023 12.5654 34.3122 13.2973 36.2588Z" fill="#FBBB00"/>
<path d="M59.4758 24.3955C59.8204 26.2103 60 28.0845 60 29.9999C60 32.1477 59.7742 34.2428 59.344 36.2637C57.8836 43.1406 54.0676 49.1455 48.7814 53.395L48.7798 53.3933L40.2199 52.9566L39.0085 45.3939C42.5161 43.3368 45.2574 40.1175 46.7013 36.2637H30.6595V24.3955H46.9354H59.4758Z" fill="#518EF8"/>
<path d="M48.7797 53.3934L48.7813 53.395C43.6402 57.5274 37.1093 59.9999 30 59.9999C18.5753 59.9999 8.64236 53.6143 3.57529 44.217L13.2973 36.2588C15.8308 43.0203 22.3533 47.8335 30 47.8335C33.2868 47.8335 36.366 46.945 39.0082 45.3939L48.7797 53.3934Z" fill="#28B446"/>
<path d="M49.1489 6.90656L39.4302 14.8631C36.6956 13.1538 33.4631 12.1664 30 12.1664C22.1802 12.1664 15.5357 17.2004 13.1291 24.2044L3.35601 16.2033H3.35437C8.34726 6.57692 18.4055 0 30 0C37.2791 0 43.9533 2.59289 49.1489 6.90656Z" fill="#F14336"/>
</g>
<defs>
<clipPath id="clip0_22_566">
<rect width="60" height="60" fill="white"/>
</clipPath>
</defs>
</svg>
