<svg width="80" height="80" viewBox="0 0 80 80" fill="none" xmlns="http://www.w3.org/2000/svg">
<g id="g4683">
<g id="g4685">
<g id="Clip path group">
<mask id="mask0_19_323" style="mask-type:luminance" maskUnits="userSpaceOnUse" x="0" y="0" width="80" height="80">
<g id="clipPath4691">
<path id="path4689" d="M0 7.62939e-06H80V80H0V7.62939e-06Z" fill="white"/>
</g>
</mask>
<g mask="url(#mask0_19_323)">
<g id="g4687">
<g id="g4693">
<path id="path4695" d="M13.221 42.8635C13.221 44.8647 11.5986 46.4871 9.59738 46.4871C7.59613 46.4871 5.97379 44.8647 5.97379 42.8635C5.97379 40.8621 7.59613 39.2399 9.59738 39.2399C11.5986 39.2399 13.221 40.8621 13.221 42.8635Z" stroke="black" stroke-width="2" stroke-miterlimit="10" stroke-linecap="round" stroke-linejoin="round"/>
</g>
<g id="g4697">
<path id="path4699" d="M28.4224 35.2498C28.4224 37.2512 26.7999 38.8734 24.7988 38.8734C22.7974 38.8734 21.175 37.2512 21.175 35.2498C21.175 33.2485 22.7974 31.6262 24.7988 31.6262C26.7999 31.6262 28.4224 33.2485 28.4224 35.2498Z" stroke="black" stroke-width="2" stroke-miterlimit="10" stroke-linecap="round" stroke-linejoin="round"/>
</g>
<g id="g4701">
<path id="path4703" d="M43.6237 20.0228C43.6237 22.024 42.0013 23.6464 40.0001 23.6464C37.9987 23.6464 36.3763 22.024 36.3763 20.0228C36.3763 18.0214 37.9987 16.3992 40.0001 16.3992C42.0013 16.3992 43.6237 18.0214 43.6237 20.0228Z" stroke="black" stroke-width="2" stroke-miterlimit="10" stroke-linecap="round" stroke-linejoin="round"/>
</g>
<g id="g4705">
<path id="path4707" d="M58.8249 27.6363C58.8249 29.6377 57.2026 31.2599 55.2013 31.2599C53.2001 31.2599 51.5776 29.6377 51.5776 27.6363C51.5776 25.6349 53.2001 24.0127 55.2013 24.0127C57.2026 24.0127 58.8249 25.6349 58.8249 27.6363Z" stroke="black" stroke-width="2" stroke-miterlimit="10" stroke-linecap="round" stroke-linejoin="round"/>
</g>
<g id="g4709">
<path id="path4711" d="M74.0262 4.79554C74.0262 6.79694 72.4038 8.41913 70.4027 8.41913C68.4013 8.41913 66.779 6.79694 66.779 4.79554C66.779 2.79413 68.4013 1.17194 70.4027 1.17194C72.4038 1.17194 74.0262 2.79413 74.0262 4.79554Z" stroke="black" stroke-width="2" stroke-miterlimit="10" stroke-linecap="round" stroke-linejoin="round"/>
</g>
<g id="g4713">
<path id="path4715" d="M57.2089 24.6198L68.3951 7.8121" stroke="black" stroke-width="2" stroke-miterlimit="10" stroke-linecap="round" stroke-linejoin="round"/>
</g>
<g id="g4717">
<path id="path4719" d="M43.2401 21.6455L51.9615 26.0137" stroke="black" stroke-width="2" stroke-miterlimit="10" stroke-linecap="round" stroke-linejoin="round"/>
</g>
<g id="g4721">
<path id="path4723" d="M27.3589 32.6854L37.4401 22.5871" stroke="black" stroke-width="2" stroke-miterlimit="10" stroke-linecap="round" stroke-linejoin="round"/>
</g>
<g id="g4725">
<path id="path4727" d="M12.8372 41.2407L21.5588 36.8725" stroke="black" stroke-width="2" stroke-miterlimit="10" stroke-linecap="round" stroke-linejoin="round"/>
</g>
<g id="g4729">
<path id="path4731" d="M13.5165 56.2762H5.67825C5.137 56.2762 4.69825 56.715 4.69825 57.2561V78.8281H14.4964V57.2561C14.4964 56.715 14.0578 56.2762 13.5165 56.2762Z" stroke="black" stroke-width="2" stroke-miterlimit="10" stroke-linecap="round" stroke-linejoin="round"/>
</g>
<g id="g4733">
<path id="path4735" d="M28.7178 48.6626H20.8797C20.3384 48.6626 19.8995 49.1015 19.8995 49.6426V78.8282H29.6978V49.6426C29.6978 49.1015 29.2591 48.6626 28.7178 48.6626Z" stroke="black" stroke-width="2" stroke-miterlimit="10" stroke-linecap="round" stroke-linejoin="round"/>
</g>
<g id="g4737">
<path id="path4739" d="M43.9191 33.3692H36.0809C35.5397 33.3692 35.1008 33.8079 35.1008 34.349V78.8281H44.8991V34.349C44.8991 33.8079 44.4603 33.3692 43.9191 33.3692Z" stroke="black" stroke-width="2" stroke-miterlimit="10" stroke-linecap="round" stroke-linejoin="round"/>
</g>
<g id="g4741">
<path id="path4743" d="M2.07611 78.8281H77.9239" stroke="black" stroke-width="2" stroke-miterlimit="10" stroke-linecap="round" stroke-linejoin="round"/>
</g>
<g id="g4745">
<path id="path4747" d="M52.4669 41.0491H51.2822C50.741 41.0491 50.3022 41.488 50.3022 42.0291V78.8281H60.1003V42.0291C60.1003 41.488 59.6616 41.0491 59.1203 41.0491H57.9356" stroke="black" stroke-width="2" stroke-miterlimit="10" stroke-linecap="round" stroke-linejoin="round"/>
</g>
<g id="g4749">
<path id="path4751" d="M75.3016 46.4365V19.0815C75.3016 18.5402 74.8629 18.1013 74.3218 18.1013H66.4835C65.9423 18.1013 65.5035 18.5402 65.5035 19.0815V78.8282H75.3016V51.9052" stroke="black" stroke-width="2" stroke-miterlimit="10" stroke-linecap="round" stroke-linejoin="round"/>
</g>
</g>
</g>
</g>
</g>
</g>
</svg>
