<svg width="25" height="24" viewBox="0 0 25 24" fill="none" xmlns="http://www.w3.org/2000/svg">
<g id="instagram (10) 1" clip-path="url(#clip0_22_619)">
<path id="Vector" d="M14.6046 12C14.6046 13.2686 13.5763 14.2969 12.3077 14.2969C11.0392 14.2969 10.0109 13.2686 10.0109 12C10.0109 10.7314 11.0392 9.70312 12.3077 9.70312C13.5763 9.70312 14.6046 10.7314 14.6046 12Z" fill="white"/>
<path id="Vector_2" d="M17.6801 7.93622C17.5696 7.63702 17.3935 7.36621 17.1646 7.14392C16.9423 6.91504 16.6717 6.73889 16.3723 6.62848C16.1295 6.53418 15.7648 6.42194 15.093 6.39136C14.3662 6.35822 14.1483 6.35107 12.3085 6.35107C10.4684 6.35107 10.2505 6.35803 9.52399 6.39117C8.85217 6.42194 8.48724 6.53418 8.24463 6.62848C7.94525 6.73889 7.67444 6.91504 7.45233 7.14392C7.22345 7.36621 7.0473 7.63684 6.93671 7.93622C6.84241 8.17902 6.73016 8.54395 6.69958 9.21576C6.66644 9.94232 6.6593 10.1602 6.6593 12.0002C6.6593 13.8401 6.66644 14.058 6.69958 14.7847C6.73016 15.4565 6.84241 15.8213 6.93671 16.0641C7.0473 16.3635 7.22327 16.6341 7.45215 16.8564C7.67444 17.0853 7.94507 17.2614 8.24445 17.3718C8.48724 17.4663 8.85217 17.5786 9.52399 17.6091C10.2505 17.6423 10.4683 17.6492 12.3083 17.6492C14.1485 17.6492 14.3664 17.6423 15.0928 17.6091C15.7646 17.5786 16.1295 17.4663 16.3723 17.3718C16.9733 17.14 17.4482 16.665 17.6801 16.0641C17.7744 15.8213 17.8866 15.4565 17.9174 14.7847C17.9505 14.058 17.9575 13.8401 17.9575 12.0002C17.9575 10.1602 17.9505 9.94232 17.9174 9.21576C17.8868 8.54395 17.7745 8.17902 17.6801 7.93622ZM12.3085 15.5384C10.3542 15.5384 8.76996 13.9543 8.76996 12.0001C8.76996 10.0458 10.3542 8.46173 12.3085 8.46173C14.2626 8.46173 15.8468 10.0458 15.8468 12.0001C15.8468 13.9543 14.2626 15.5384 12.3085 15.5384ZM15.9867 9.14874C15.53 9.14874 15.1598 8.7785 15.1598 8.32184C15.1598 7.86517 15.53 7.49493 15.9867 7.49493C16.4434 7.49493 16.8136 7.86517 16.8136 8.32184C16.8134 8.7785 16.4434 9.14874 15.9867 9.14874Z" fill="white"/>
<path id="Vector_3" d="M12.3077 0C5.68134 0 0.307739 5.3736 0.307739 12C0.307739 18.6264 5.68134 24 12.3077 24C18.9341 24 24.3077 18.6264 24.3077 12C24.3077 5.3736 18.9341 0 12.3077 0ZM19.1568 14.8409C19.1235 15.5744 19.0068 16.0752 18.8365 16.5135C18.4786 17.4391 17.7469 18.1708 16.8213 18.5288C16.3831 18.6991 15.8821 18.8156 15.1488 18.8491C14.414 18.8826 14.1793 18.8906 12.3079 18.8906C10.4364 18.8906 10.2018 18.8826 9.46686 18.8491C8.73352 18.8156 8.23254 18.6991 7.79437 18.5288C7.33441 18.3558 6.91803 18.0846 6.57379 17.7339C6.22333 17.3899 5.95215 16.9733 5.77911 16.5135C5.60883 16.0754 5.49219 15.5744 5.45886 14.8411C5.42499 14.1061 5.41711 13.8713 5.41711 12C5.41711 10.1287 5.42499 9.89392 5.45868 9.15912C5.492 8.4256 5.60846 7.9248 5.77875 7.48645C5.95178 7.02667 6.22314 6.61011 6.57379 6.26605C6.91785 5.91541 7.33441 5.64423 7.79419 5.47119C8.23254 5.3009 8.73334 5.18445 9.46686 5.15094C10.2017 5.11743 10.4364 5.10938 12.3077 5.10938C14.1791 5.10938 14.4138 5.11743 15.1486 5.15112C15.8821 5.18445 16.3829 5.3009 16.8213 5.47101C17.2811 5.64404 17.6976 5.91541 18.0419 6.26605C18.3923 6.61029 18.6637 7.02667 18.8365 7.48645C19.007 7.9248 19.1235 8.4256 19.157 9.15912C19.1905 9.89392 19.1984 10.1287 19.1984 12C19.1984 13.8713 19.1905 14.1061 19.1568 14.8409Z" fill="white"/>
</g>
<defs>
<clipPath id="clip0_22_619">
<rect width="24" height="24" fill="white" transform="translate(0.307739)"/>
</clipPath>
</defs>
</svg>
