<svg width="25" height="24" viewBox="0 0 25 24" fill="none" xmlns="http://www.w3.org/2000/svg">
<g id="linkedin (12) 1" clip-path="url(#clip0_22_623)">
<path id="Vector" d="M12.4615 0C5.83514 0 0.461548 5.3736 0.461548 12C0.461548 18.6264 5.83514 24 12.4615 24C19.088 24 24.4615 18.6264 24.4615 12C24.4615 5.3736 19.088 0 12.4615 0ZM8.97449 18.1406H6.05194V9.34808H8.97449V18.1406ZM7.51331 8.14746H7.49426C6.51355 8.14746 5.87927 7.47235 5.87927 6.6286C5.87927 5.76581 6.53296 5.10938 7.53271 5.10938C8.53247 5.10938 9.14771 5.76581 9.16675 6.6286C9.16675 7.47235 8.53247 8.14746 7.51331 8.14746ZM19.5126 18.1406H16.5904V13.4368C16.5904 12.2547 16.1672 11.4485 15.1098 11.4485C14.3025 11.4485 13.8217 11.9923 13.6104 12.5173C13.5331 12.7051 13.5142 12.9677 13.5142 13.2305V18.1406H10.5919C10.5919 18.1406 10.6301 10.173 10.5919 9.34808H13.5142V10.593C13.9026 9.9939 14.5975 9.14172 16.148 9.14172C18.0708 9.14172 19.5126 10.3984 19.5126 13.099V18.1406Z" fill="white"/>
</g>
<defs>
<clipPath id="clip0_22_623">
<rect width="24" height="24" fill="white" transform="translate(0.461548)"/>
</clipPath>
</defs>
</svg>
