<svg width="30" height="30" viewBox="0 0 30 30" fill="none" xmlns="http://www.w3.org/2000/svg">
<g id="magnifying-glass 1">
<g id="_x32_-Magnifying_Glass">
<path id="Vector" d="M25.5621 24.6783L20.6792 19.7954C22.1778 18.0864 23.0048 15.924 23.0048 13.6298C23.0048 11.1255 22.0294 8.77136 20.2588 7.00073C18.4882 5.2301 16.134 4.25476 13.6298 4.25476C11.1255 4.25476 8.77136 5.2301 7.00073 7.00073C5.2301 8.77136 4.25476 11.1255 4.25476 13.6298C4.25476 16.134 5.2301 18.4882 7.00073 20.2588C8.77136 22.0294 11.1255 23.0048 13.6298 23.0048C15.924 23.0048 18.0864 22.1778 19.7954 20.6792L24.6783 25.5621C24.8004 25.6842 24.9603 25.7452 25.1202 25.7452C25.2802 25.7452 25.4401 25.6842 25.5621 25.5621C25.8063 25.318 25.8063 24.9225 25.5621 24.6783ZM7.88452 19.375C6.3501 17.8403 5.50476 15.7999 5.50476 13.6298C5.50476 11.4597 6.3501 9.41925 7.88452 7.88452C9.41925 6.3501 11.4597 5.50476 13.6298 5.50476C15.7999 5.50476 17.8403 6.3501 19.375 7.88452C20.9094 9.41925 21.7548 11.4597 21.7548 13.6298C21.7548 15.7999 20.9094 17.8403 19.375 19.375C17.8403 20.9094 15.7999 21.7548 13.6298 21.7548C11.4597 21.7548 9.41925 20.9094 7.88452 19.375Z" fill="black"/>
</g>
</g>
</svg>
