<svg width="40" height="40" viewBox="0 0 40 40" fill="none" xmlns="http://www.w3.org/2000/svg">
<g id="right 4" clip-path="url(#clip0_19_470)">
<path id="Right" d="M20 0C31.0278 0 40 8.97219 40 20C40 31.0278 31.0278 40 20 40C8.97219 40 0 31.0278 0 20C0 8.97219 8.97219 0 20 0ZM20 37.5C29.6497 37.5 37.5 29.6497 37.5 20C37.5 10.3503 29.6497 2.5 20 2.5C10.3503 2.5 2.5 10.3503 2.5 20C2.5 29.6497 10.3503 37.5 20 37.5ZM11.6162 19.1163C11.1278 19.6047 11.1278 20.3956 11.6162 20.8838L17.8662 27.1338C18.1103 27.3778 18.4303 27.5 18.75 27.5C19.0697 27.5 19.3897 27.3778 19.6338 27.1338C20.1222 26.6453 20.1222 25.8544 19.6338 25.3662L15.5175 21.25H27.5C28.1903 21.25 28.75 20.6909 28.75 20C28.75 19.3091 28.1903 18.75 27.5 18.75H15.5175L19.6338 14.6337C20.1222 14.1453 20.1222 13.3544 19.6338 12.8663C19.1453 12.3781 18.3544 12.3778 17.8662 12.8663L11.6162 19.1163Z" fill="black"/>
</g>
<defs>
<clipPath id="clip0_19_470">
<rect width="40" height="40" fill="white" transform="matrix(-1 0 0 1 40 0)"/>
</clipPath>
</defs>
</svg>
