<svg width="23" height="24" viewBox="0 0 23 24" fill="none" xmlns="http://www.w3.org/2000/svg">
<g id="Group 1">
<path id="Vector" d="M11.1656 11.9099C9.98779 11.9099 8.83646 11.5606 7.85718 10.9063C6.8779 10.2519 6.11464 9.3219 5.66393 8.23378C5.21321 7.14566 5.09529 5.94832 5.32506 4.79318C5.55483 3.63804 6.12198 2.57697 6.95479 1.74416C7.7876 0.911349 8.84867 0.344197 10.0038 0.114425C11.159 -0.115347 12.3563 0.00258015 13.4444 0.453294C14.5325 0.904009 15.4626 1.66727 16.1169 2.64655C16.7712 3.62583 17.1205 4.77716 17.1205 5.95493C17.1187 7.53374 16.4908 9.04738 15.3744 10.1638C14.258 11.2801 12.7444 11.9081 11.1656 11.9099ZM11.1656 1.65415C10.3149 1.65415 9.48344 1.90638 8.77618 2.37896C8.06892 2.85154 7.51768 3.52323 7.19216 4.30909C6.86664 5.09496 6.78147 5.9597 6.94742 6.79397C7.11337 7.62824 7.52298 8.39456 8.12445 8.99604C8.72593 9.59751 9.49225 10.0071 10.3265 10.1731C11.1608 10.339 12.0255 10.2538 12.8114 9.92833C13.5973 9.60281 14.269 9.05157 14.7415 8.34431C15.2141 7.63705 15.4663 6.80554 15.4663 5.95493C15.465 4.81469 15.0115 3.72154 14.2052 2.91527C13.399 2.109 12.3058 1.65546 11.1656 1.65415Z" fill="black"/>
<path id="Vector_2" d="M21.5039 24C21.2845 24 21.0742 23.9128 20.9191 23.7577C20.764 23.6026 20.6768 23.3923 20.6768 23.1729V21.1284C20.6751 19.5579 20.0504 18.0523 18.9399 16.9418C17.8294 15.8313 16.3238 15.2066 14.7533 15.2049H7.57764C6.00717 15.2066 4.50152 15.8313 3.39103 16.9418C2.28054 18.0523 1.6559 19.5579 1.65415 21.1284V23.1729C1.65415 23.3923 1.56701 23.6026 1.4119 23.7577C1.2568 23.9128 1.04643 24 0.827073 24C0.60772 24 0.39735 23.9128 0.242244 23.7577C0.0871378 23.6026 0 23.3923 0 23.1729V21.1284C0.00240767 19.1194 0.801537 17.1934 2.2221 15.7728C3.64266 14.3523 5.56867 13.5531 7.57764 13.5507H14.7525C16.7616 13.5529 18.6878 14.352 20.1086 15.7725C21.5293 17.1931 22.3286 19.1193 22.331 21.1284V23.1729C22.331 23.3923 22.2438 23.6026 22.0887 23.7577C21.9336 23.9128 21.7233 24 21.5039 24Z" fill="black"/>
</g>
</svg>
