<svg width="25" height="24" viewBox="0 0 25 24" fill="none" xmlns="http://www.w3.org/2000/svg">
<g id="youtube (6) 1" clip-path="url(#clip0_22_613)">
<g id="Layer 2">
<g id="Color">
<g id="02.YouTube">
<path id="Vector" d="M10.4896 13.9358L13.818 12.0047L10.4896 10.0642V13.9358Z" fill="white"/>
<path id="Vector_2" d="M12.1538 0C9.78044 0 7.46036 0.703788 5.48697 2.02236C3.51358 3.34094 1.97551 5.21509 1.06726 7.4078C0.159008 9.60051 -0.078632 12.0133 0.384391 14.3411C0.847413 16.6689 1.9903 18.8071 3.66853 20.4853C5.34676 22.1635 7.48496 23.3064 9.81273 23.7694C12.1405 24.2324 14.5533 23.9948 16.746 23.0866C18.9387 22.1783 20.8129 20.6402 22.1315 18.6668C23.45 16.6935 24.1538 14.3734 24.1538 12C24.1538 8.8174 22.8895 5.76516 20.6391 3.51472C18.3887 1.26428 15.3364 0 12.1538 0ZM18.4696 14.1237C18.4698 14.4375 18.4082 14.7484 18.2882 15.0384C18.1682 15.3284 17.9923 15.5919 17.7705 15.8139C17.5486 16.0359 17.2852 16.2121 16.9952 16.3322C16.7053 16.4524 16.3945 16.5142 16.0807 16.5142H8.22697C7.91312 16.5142 7.60234 16.4524 7.3124 16.3322C7.02245 16.2121 6.75903 16.0359 6.53717 15.8139C6.31532 15.5919 6.13938 15.3284 6.01942 15.0384C5.89946 14.7484 5.83782 14.4375 5.83802 14.1237V9.87632C5.83782 9.56246 5.89946 9.25164 6.01942 8.96162C6.13938 8.6716 6.31532 8.40806 6.53717 8.18605C6.75903 7.96405 7.02245 7.78794 7.3124 7.66779C7.60234 7.54763 7.91312 7.48579 8.22697 7.48579H16.0807C16.3945 7.48579 16.7053 7.54763 16.9952 7.66779C17.2852 7.78794 17.5486 7.96405 17.7705 8.18605C17.9923 8.40806 18.1682 8.6716 18.2882 8.96162C18.4082 9.25164 18.4698 9.56246 18.4696 9.87632V14.1237Z" fill="white"/>
</g>
</g>
</g>
</g>
<defs>
<clipPath id="clip0_22_613">
<rect width="24" height="24" fill="white" transform="translate(0.153809)"/>
</clipPath>
</defs>
</svg>
